<svg xmlns="http://www.w3.org/2000/svg" viewBox="0 0 1200 720"><defs><linearGradient id="g" x1="0" y1="0" x2="1" y2="1"><stop stop-color="#f59e0b"/><stop offset="1" stop-color="#0b6e8e"/></linearGradient></defs><rect width="1200" height="720" rx="36" fill="#071b2b"/><rect x="55" y="55" width="1090" height="610" rx="28" fill="#f7fafb"/><rect x="55" y="55" width="1090" height="72" rx="28" fill="#102c3e"/><text x="92" y="101" font-family="Arial,sans-serif" font-size="28" font-weight="800" fill="#fff">CheckMaq</text><text x="990" y="101" font-family="Arial,sans-serif" font-size="14" fill="#f5b942">MAQUINARIA</text><rect x="92" y="157" width="260" height="455" rx="18" fill="#eaf1f4"/><text x="120" y="198" font-family="Arial,sans-serif" font-size="17" font-weight="700" fill="#102c3e">Estado de equipos</text><circle cx="150" cy="250" r="9" fill="#19a974"/><text x="172" y="256" font-family="Arial,sans-serif" font-size="14" fill="#31505e">Operativa</text><circle cx="150" cy="290" r="9" fill="#f59e0b"/><text x="172" y="296" font-family="Arial,sans-serif" font-size="14" fill="#31505e">Pendiente</text><circle cx="150" cy="330" r="9" fill="#dc4b4b"/><text x="172" y="336" font-family="Arial,sans-serif" font-size="14" fill="#31505e">Requiere atención</text><rect x="120" y="380" width="204" height="86" rx="14" fill="#102c3e"/><text x="142" y="412" font-family="Arial,sans-serif" font-size="13" fill="#a9c2ce">Horas acumuladas</text><text x="142" y="447" font-family="Arial,sans-serif" font-size="29" font-weight="800" fill="#fff">1.248 h</text><rect x="390" y="157" width="700" height="455" rx="18" fill="#fff" stroke="#d7e3e8"/><text x="423" y="202" font-family="Arial,sans-serif" font-size="19" font-weight="700" fill="#102c3e">Checklist diario · EXC-014</text><text x="423" y="231" font-family="Arial,sans-serif" font-size="13" fill="#647d88">Operador · Turno mañana · Orómetro 1.248 h</text><g font-family="Arial,sans-serif"><rect x="423" y="263" width="634" height="54" rx="12" fill="#f1f6f7"/><text x="446" y="297" font-size="14" fill="#31505e">Niveles y fugas</text><text x="1000" y="297" font-size="15" font-weight="700" fill="#19a974">✓ OK</text><rect x="423" y="329" width="634" height="54" rx="12" fill="#fff7e8"/><text x="446" y="363" font-size="14" fill="#31505e">Calza suelta</text><text x="972" y="363" font-size="15" font-weight="700" fill="#f59e0b">PEND.</text><rect x="423" y="395" width="634" height="54" rx="12" fill="#f1f6f7"/><text x="446" y="429" font-size="14" fill="#31505e">Luces y señalización</text><text x="1000" y="429" font-size="15" font-weight="700" fill="#19a974">✓ OK</text></g><rect x="423" y="490" width="260" height="70" rx="14" fill="url(#g)"/><text x="449" y="520" font-family="Arial,sans-serif" font-size="14" font-weight="700" fill="#fff">Reporte de mantención</text><text x="449" y="544" font-family="Arial,sans-serif" font-size="12" fill="#fff">foto · observación · estado</text></svg>