<svg xmlns="http://www.w3.org/2000/svg" viewBox="0 0 700 560"><defs><linearGradient id="p" x1="0" y1="0" x2="1" y2="1"><stop stop-color="#f5efff"/><stop offset="1" stop-color="#d8c5ff"/></linearGradient></defs><rect width="700" height="560" rx="28" fill="url(#p)"/><g font-family="Arial,sans-serif"><text x="40" y="70" fill="#5c2ca0" font-size="34" font-weight="900">ProfeEmi</text><text x="40" y="102" fill="#6e5b84" font-size="14">Aprendizaje que se adapta a ti.</text><rect x="360" y="48" width="285" height="285" rx="22" fill="#fff" stroke="#a98be0"/><g fill="#f4efff"><rect x="380" y="75" width="112" height="70" rx="12"/><rect x="505" y="75" width="112" height="70" rx="12"/><rect x="380" y="158" width="112" height="70" rx="12"/><rect x="505" y="158" width="112" height="70" rx="12"/></g><g fill="#5c2ca0" font-size="11" font-weight="800"><text x="436" y="105" text-anchor="middle">Aprende</text><text x="561" y="105" text-anchor="middle">Comprende</text><text x="436" y="188" text-anchor="middle">Practica</text><text x="561" y="188" text-anchor="middle">Progresa</text></g><circle cx="500" cy="278" r="28" fill="#7c4dcc"/><text x="500" y="283" fill="#fff" font-size="13" font-weight="800" text-anchor="middle">75%</text><g fill="#5c2ca0"><circle cx="150" cy="285" r="72"/><path d="M85 365 Q150 305 215 365 L230 485 L70 485Z"/></g><circle cx="150" cy="270" r="55" fill="#f2c7a5"/><path d="M96 265 Q150 200 204 265 Q180 220 120 230Z" fill="#222"/><g fill="#fff" font-size="12"><text x="150" y="285" text-anchor="middle">Hola, aprendamos</text></g><rect x="40" y="440" width="605" height="70" rx="15" fill="#fff" stroke="#bba1e6"/><text x="342" y="465" fill="#5c2ca0" font-size="13" font-weight="800" text-anchor="middle">¿CÓMO FUNCIONA PROFEEMI?</text><text x="342" y="488" fill="#6e5b84" font-size="11" text-anchor="middle">Evaluar → Personalizar → Practicar → Reforzar</text></g></svg>